<svg width="18" height="18" viewBox="0 0 18 18" fill="none" xmlns="http://www.w3.org/2000/svg">
<g clip-path="url(#clip0_119_2629)">
<path opacity="0.2" d="M9.00039 17.1C13.4739 17.1 17.1004 13.4736 17.1004 9.00002C17.1004 4.52652 13.4739 0.900024 9.00039 0.900024C4.52689 0.900024 0.900391 4.52652 0.900391 9.00002C0.900391 13.4736 4.52689 17.1 9.00039 17.1Z" fill="#1EBD53"/>
<path d="M12.7121 6.97498L7.76208 11.7L5.28711 9.33748" stroke="#1EBD53" stroke-width="1.5" stroke-linecap="round" stroke-linejoin="round"/>
<path d="M9.00039 17.1C13.4739 17.1 17.1004 13.4736 17.1004 9.00002C17.1004 4.52652 13.4739 0.900024 9.00039 0.900024C4.52689 0.900024 0.900391 4.52652 0.900391 9.00002C0.900391 13.4736 4.52689 17.1 9.00039 17.1Z" stroke="#1EBD53" stroke-width="1.5" stroke-linecap="round" stroke-linejoin="round"/>
</g>
<defs>
<clipPath id="clip0_119_2629">
<rect width="18" height="18" fill="white"/>
</clipPath>
</defs>
</svg>
