<svg width="605" height="150" viewBox="0 0 605 150" fill="none" xmlns="http://www.w3.org/2000/svg">
<g clip-path="url(#clip0_159_2701)">
<g clip-path="url(#clip1_159_2701)">
<path d="M0.145508 38.6197C1.11705 37.8004 2.25241 37.2535 3.33089 36.6126C16.6792 28.6517 30.035 20.6995 43.3984 12.7558C50.3851 8.59149 57.3739 4.41935 64.3651 0.239377C64.8088 -0.0258811 65.1455 -0.105693 65.6279 0.18304C72.1852 4.11888 78.7509 8.04141 85.3249 11.9506C90.3669 14.953 95.4248 17.9295 100.465 20.9319C109.414 26.2652 118.359 31.604 127.299 36.9483C128.027 37.3826 128.744 37.8403 129.49 38.2394C130.064 38.5492 129.911 38.7253 129.463 38.9905C127.188 40.3262 124.937 41.6783 122.676 43.0258C114.41 47.9538 106.144 52.8834 97.8753 57.8145C89.7268 62.6658 81.5768 67.507 73.4252 72.338C70.7859 73.906 68.1443 75.4741 65.5232 77.0751C65.1228 77.3215 64.8725 77.2699 64.5039 77.0492C60.3174 74.5375 56.1248 72.0383 51.9262 69.5516C49.4575 68.0798 46.9956 66.5985 44.4178 65.0563L88.822 38.6009L69.3684 27.0187C68.0965 26.2605 66.8201 25.5093 65.5573 24.737C65.4094 24.6237 65.2304 24.5615 65.0461 24.5594C64.8618 24.5572 64.6816 24.6153 64.5312 24.7253C55.1267 30.3497 45.7086 35.9632 36.2768 41.5657L20.9551 50.6971C20.8591 50.7482 20.7604 50.7937 20.6594 50.8333C20.061 50.9248 19.6196 50.5187 19.1736 50.2464C13.0713 46.5187 6.88713 42.9295 0.743892 39.2629C0.495887 39.1009 0.218317 38.9647 0.145508 38.6197Z" fill="#125CEC"/>
<path d="M0.145508 38.6197C1.11705 37.8004 2.25241 37.2535 3.33089 36.6126C16.6792 28.6517 30.035 20.6995 43.3984 12.7558C50.3851 8.59149 57.3739 4.41935 64.3651 0.239377C64.8088 -0.0258811 65.1455 -0.105693 65.6279 0.18304C72.1852 4.11888 78.7509 8.04141 85.3249 11.9506C90.3669 14.953 95.4248 17.9295 100.465 20.9319C109.414 26.2652 118.359 31.604 127.299 36.9483C128.027 37.3826 128.744 37.8403 129.49 38.2394C130.064 38.5492 129.911 38.7253 129.463 38.9905C127.188 40.3262 124.937 41.6783 122.676 43.0258C114.41 47.9538 106.144 52.8834 97.8753 57.8145C89.7268 62.6658 81.5768 67.507 73.4252 72.338C70.7859 73.906 68.1443 75.4741 65.5232 77.0751C65.1228 77.3215 64.8725 77.2699 64.5039 77.0492C60.3174 74.5375 56.1248 72.0383 51.9262 69.5516C49.4575 68.0798 46.9956 66.5985 44.4178 65.0563L88.822 38.6009L69.3684 27.0187C68.0965 26.2605 66.8201 25.5093 65.5573 24.737C65.4094 24.6237 65.2304 24.5615 65.0461 24.5594C64.8618 24.5572 64.6816 24.6153 64.5312 24.7253C55.1267 30.3497 45.7086 35.9632 36.2768 41.5657L20.9551 50.6971C20.8591 50.7482 20.7604 50.7937 20.6594 50.8333C20.061 50.9248 19.6196 50.5187 19.1736 50.2464C13.0713 46.5187 6.88713 42.9295 0.743892 39.2629C0.495887 39.1009 0.218317 38.9647 0.145508 38.6197Z" fill="url(#paint0_linear_159_2701)" fill-opacity="0.6"/>
<path d="M0.145955 38.6198C3.47544 40.5994 6.80339 42.5798 10.1298 44.5611C13.1423 46.3639 16.1457 48.1831 19.1581 49.9883C19.6496 50.2841 20.1593 50.547 20.6621 50.8263C20.6621 55.3287 20.6575 59.8318 20.6484 64.3357C20.6484 75.6033 20.6484 86.8521 20.6257 98.1104C20.6257 98.9108 20.8942 99.3146 21.5221 99.6831C25.0731 101.765 28.6149 103.864 32.1477 105.981C38.5048 109.777 44.8505 113.594 51.2167 117.376C55.8128 120.108 60.4316 122.803 65.0413 125.514C65.3325 125.838 65.2915 126.244 65.2915 126.631C65.2915 134.041 65.2915 141.453 65.2915 148.866C65.2915 149.254 65.3211 149.66 65.0299 149.981C63.7808 149.484 62.6932 148.678 61.5442 148C55.589 144.484 49.6437 140.953 43.7083 137.408C35.9724 132.8 28.2441 128.183 20.5233 123.559C14.0919 119.726 7.65283 115.905 1.20623 112.094C0.368926 111.601 -0.00421806 111.094 -0.00194279 110.014C0.0359784 86.4554 0.0465997 62.8952 0.0299144 39.3334C0.0321896 39.0986 -0.058819 38.831 0.145955 38.6198Z" fill="#00E0FF"/>
<path d="M0.145955 38.6198C3.47544 40.5994 6.80339 42.5798 10.1298 44.5611C13.1423 46.3639 16.1457 48.1831 19.1581 49.9883C19.6496 50.2841 20.1593 50.547 20.6621 50.8263C20.6621 55.3287 20.6575 59.8318 20.6484 64.3357C20.6484 75.6033 20.6484 86.8521 20.6257 98.1104C20.6257 98.9108 20.8942 99.3146 21.5221 99.6831C25.0731 101.765 28.6149 103.864 32.1477 105.981C38.5048 109.777 44.8505 113.594 51.2167 117.376C55.8128 120.108 60.4316 122.803 65.0413 125.514C65.3325 125.838 65.2915 126.244 65.2915 126.631C65.2915 134.041 65.2915 141.453 65.2915 148.866C65.2915 149.254 65.3211 149.66 65.0299 149.981C63.7808 149.484 62.6932 148.678 61.5442 148C55.589 144.484 49.6437 140.953 43.7083 137.408C35.9724 132.8 28.2441 128.183 20.5233 123.559C14.0919 119.726 7.65283 115.905 1.20623 112.094C0.368926 111.601 -0.00421806 111.094 -0.00194279 110.014C0.0359784 86.4554 0.0465997 62.8952 0.0299144 39.3334C0.0321896 39.0986 -0.058819 38.831 0.145955 38.6198Z" fill="url(#paint1_linear_159_2701)"/>
<path d="M65.0273 149.981V125.514C72.3992 121.132 79.7711 116.75 87.143 112.369C98.6604 105.514 110.178 98.6573 121.695 91.7982C124.166 90.3271 126.637 88.8537 129.108 87.378C129.336 87.2395 129.55 87.047 129.861 87.0376C129.974 87.4678 130.014 87.9149 129.98 88.3592C129.98 95.7943 129.98 103.228 129.98 110.66C129.98 111.232 129.836 111.547 129.333 111.845C120.892 116.84 112.46 121.854 104.037 126.885C94.3124 132.675 84.5894 138.472 74.8679 144.275L65.5393 149.833C65.4692 149.894 65.3873 149.939 65.2989 149.965C65.2106 149.99 65.118 149.996 65.0273 149.981V149.981Z" fill="#125CEC"/>
<path d="M65.0273 149.981V125.514C72.3992 121.132 79.7711 116.75 87.143 112.369C98.6604 105.514 110.178 98.6573 121.695 91.7982C124.166 90.3271 126.637 88.8537 129.108 87.378C129.336 87.2395 129.55 87.047 129.861 87.0376C129.974 87.4678 130.014 87.9149 129.98 88.3592C129.98 95.7943 129.98 103.228 129.98 110.66C129.98 111.232 129.836 111.547 129.333 111.845C120.892 116.84 112.46 121.854 104.037 126.885C94.3124 132.675 84.5894 138.472 74.8679 144.275L65.5393 149.833C65.4692 149.894 65.3873 149.939 65.2989 149.965C65.2106 149.99 65.118 149.996 65.0273 149.981V149.981Z" fill="url(#paint2_linear_159_2701)" fill-opacity="0.2"/>
</g>
<path d="M208.409 57.1956C208.08 53.9015 206.668 51.3425 204.173 49.5185C201.678 47.6945 198.292 46.7825 194.014 46.7825C191.108 46.7825 188.654 47.1909 186.652 48.0076C184.65 48.7971 183.115 49.8997 182.045 51.3153C181.003 52.7309 180.482 54.3371 180.482 56.1339C180.428 57.6312 180.743 58.938 181.428 60.0541C182.141 61.1703 183.115 62.1368 184.349 62.9535C185.583 63.743 187.008 64.4372 188.626 65.0361C190.244 65.6078 191.971 66.0978 193.808 66.5062L201.376 68.3029C205.05 69.1197 208.423 70.2086 211.494 71.5698C214.565 72.931 217.225 74.6053 219.473 76.5926C221.722 78.5799 223.463 80.9212 224.697 83.6163C225.958 86.3115 226.602 89.4014 226.63 92.886C226.602 98.0041 225.286 102.442 222.681 106.198C220.104 109.928 216.375 112.827 211.494 114.896C206.641 116.938 200.787 117.959 193.932 117.959C187.132 117.959 181.209 116.925 176.164 114.856C171.146 112.787 167.225 109.724 164.401 105.668C161.604 101.584 160.137 96.534 160 90.5176H177.233C177.425 93.3216 178.234 95.6629 179.66 97.5413C181.113 99.3925 183.046 100.795 185.459 101.747C187.899 102.673 190.655 103.136 193.726 103.136C196.742 103.136 199.361 102.7 201.582 101.829C203.83 100.958 205.571 99.7464 206.805 98.1947C208.039 96.6429 208.656 94.8598 208.656 92.8452C208.656 90.9668 208.094 89.3878 206.97 88.1083C205.873 86.8287 204.255 85.7398 202.117 84.8414C200.005 83.943 197.414 83.1263 194.343 82.3913L185.171 80.1045C178.07 78.3894 172.462 75.7078 168.349 72.0598C164.236 68.4118 162.194 63.4979 162.221 57.3181C162.194 52.2545 163.551 47.8306 166.293 44.0465C169.062 40.2624 172.86 37.3086 177.686 35.1852C182.512 33.0617 187.995 32 194.137 32C200.389 32 205.846 33.0617 210.507 35.1852C215.196 37.3086 218.843 40.2624 221.447 44.0465C224.052 47.8306 225.396 52.2137 225.478 57.1956H208.409Z" fill="#0D0E10"/>
<path d="M271.882 54.0513V67.1187H233.838V54.0513H271.882ZM242.475 39.0237H259.996V97.5005C259.996 99.1067 260.243 100.359 260.736 101.257C261.23 102.129 261.915 102.741 262.793 103.095C263.698 103.449 264.74 103.626 265.919 103.626C266.741 103.626 267.564 103.558 268.386 103.422C269.209 103.258 269.84 103.136 270.278 103.054L273.034 115.999C272.157 116.271 270.923 116.584 269.332 116.938C267.742 117.319 265.809 117.551 263.533 117.632C259.31 117.796 255.609 117.238 252.428 115.958C249.275 114.679 246.821 112.691 245.066 109.996C243.311 107.301 242.447 103.898 242.475 99.7873V39.0237Z" fill="#0D0E10"/>
<path d="M323.808 90.0684V54.0513H341.329V116.775H324.507V105.382H323.849C322.424 109.057 320.052 112.011 316.734 114.243C313.444 116.475 309.427 117.592 304.683 117.592C300.46 117.592 296.745 116.639 293.537 114.733C290.329 112.827 287.82 110.119 286.01 106.607C284.228 103.095 283.323 98.8889 283.296 93.9886V54.0513H300.817V90.8851C300.844 94.5875 301.845 97.5141 303.819 99.6648C305.794 101.815 308.44 102.891 311.757 102.891C313.869 102.891 315.843 102.414 317.68 101.462C319.517 100.481 320.998 99.0386 322.122 97.133C323.274 95.2273 323.836 92.8724 323.808 90.0684Z" fill="#0D0E10"/>
<path d="M378.624 117.796C373.825 117.796 369.479 116.571 365.586 114.121C361.719 111.643 358.648 108.009 356.373 103.217C354.124 98.3989 353 92.4913 353 85.4948C353 78.3077 354.165 72.3321 356.496 67.5679C358.827 62.7765 361.925 59.1966 365.791 56.8281C369.685 54.4324 373.949 53.2346 378.582 53.2346C382.12 53.2346 385.067 53.8335 387.425 55.0313C389.811 56.202 391.73 57.672 393.183 59.4416C394.664 61.1839 395.788 62.899 396.556 64.5869H397.091V33.1434H414.571V116.775H397.296V106.729H396.556C395.733 108.472 394.568 110.2 393.06 111.915C391.579 113.603 389.646 115.005 387.261 116.122C384.903 117.238 382.024 117.796 378.624 117.796ZM384.176 103.953C387 103.953 389.386 103.19 391.333 101.666C393.307 100.114 394.815 97.9497 395.857 95.1728C396.926 92.396 397.461 89.1428 397.461 85.4131C397.461 81.6834 396.94 78.4438 395.898 75.6942C394.856 72.9446 393.348 70.8211 391.374 69.3238C389.399 67.8265 387 67.0779 384.176 67.0779C381.297 67.0779 378.87 67.8538 376.896 69.4055C374.922 70.9573 373.428 73.1079 372.413 75.8576C371.398 78.6072 370.891 81.7923 370.891 85.4131C370.891 89.0611 371.398 92.2871 372.413 95.0912C373.455 97.868 374.949 100.046 376.896 101.625C378.87 103.177 381.297 103.953 384.176 103.953Z" fill="#0D0E10"/>
<path d="M457.767 118C451.268 118 445.675 116.693 440.986 114.08C436.325 111.439 432.733 107.709 430.21 102.891C427.688 98.0449 426.426 92.3143 426.426 85.699C426.426 79.2469 427.688 73.5844 430.21 68.7113C432.733 63.8382 436.284 60.0405 440.863 57.3181C445.469 54.5958 450.871 53.2346 457.068 53.2346C461.235 53.2346 465.115 53.9016 468.707 55.2355C472.327 56.5423 475.48 58.516 478.167 61.1567C480.882 63.7974 482.993 67.1187 484.501 71.1206C486.009 75.0953 486.763 79.7506 486.763 85.0864V89.8642H433.418V79.0836H470.27C470.27 76.579 469.722 74.3602 468.625 72.4273C467.528 70.4945 466.007 68.9835 464.06 67.8946C462.14 66.7784 459.906 66.2203 457.356 66.2203C454.696 66.2203 452.338 66.8329 450.281 68.0579C448.252 69.2558 446.662 70.8756 445.51 72.9174C444.359 74.9319 443.769 77.1779 443.742 79.6553V89.905C443.742 93.0085 444.318 95.6901 445.469 97.9497C446.648 100.209 448.307 101.952 450.446 103.177C452.585 104.402 455.121 105.014 458.055 105.014C460.002 105.014 461.784 104.742 463.402 104.198C465.019 103.653 466.404 102.836 467.556 101.747C468.707 100.658 469.585 99.3245 470.188 97.7455L486.393 98.8072C485.57 102.673 483.884 106.049 481.334 108.934C478.811 111.793 475.549 114.025 471.545 115.632C467.569 117.211 462.977 118 457.767 118Z" fill="#0D0E10"/>
<path d="M515.718 80.5128V116.775H498.197V54.0513H514.896V65.1178H515.636C517.034 61.4698 519.379 58.584 522.669 56.4606C525.96 54.3099 529.949 53.2346 534.638 53.2346C539.025 53.2346 542.85 54.1874 546.113 56.0931C549.376 57.9987 551.912 60.7211 553.722 64.2602C555.532 67.7721 556.436 71.9645 556.436 76.8376V116.775H538.915V79.9411C538.943 76.1026 537.956 73.1079 535.954 70.9573C533.952 68.7794 531.197 67.6904 527.687 67.6904C525.329 67.6904 523.245 68.194 521.435 69.2013C519.653 70.2086 518.255 71.6787 517.24 73.6116C516.253 75.5173 515.746 77.8177 515.718 80.5128Z" fill="#0D0E10"/>
<path d="M603.848 54.0513V67.1187H565.804V54.0513H603.848ZM574.441 39.0237H591.962V97.5005C591.962 99.1067 592.209 100.359 592.702 101.257C593.196 102.129 593.881 102.741 594.759 103.095C595.664 103.449 596.706 103.626 597.885 103.626C598.707 103.626 599.53 103.558 600.352 103.422C601.175 103.258 601.806 103.136 602.244 103.054L605 115.999C604.123 116.271 602.889 116.584 601.298 116.938C599.708 117.319 597.775 117.551 595.499 117.632C591.276 117.796 587.575 117.238 584.394 115.958C581.241 114.679 578.787 112.691 577.032 109.996C575.277 107.301 574.413 103.898 574.441 99.7873V39.0237Z" fill="#0D0E10"/>
</g>
<defs>
<linearGradient id="paint0_linear_159_2701" x1="65.004" y1="0.000366211" x2="65.004" y2="77.2385" gradientUnits="userSpaceOnUse">
<stop stop-color="#8F00FF"/>
<stop offset="1" stop-color="#8F00FF" stop-opacity="0"/>
</linearGradient>
<linearGradient id="paint1_linear_159_2701" x1="32.6458" y1="38.6198" x2="32.6458" y2="149.981" gradientUnits="userSpaceOnUse">
<stop offset="0.203125" stop-color="#3047F0"/>
<stop offset="1" stop-color="#125CEC" stop-opacity="0"/>
</linearGradient>
<linearGradient id="paint2_linear_159_2701" x1="129.999" y1="94.3549" x2="64.8323" y2="132.782" gradientUnits="userSpaceOnUse">
<stop stop-color="#8F00FF"/>
<stop offset="1" stop-color="#8F00FF" stop-opacity="0"/>
</linearGradient>
<clipPath id="clip0_159_2701">
<rect width="605" height="150" fill="white"/>
</clipPath>
<clipPath id="clip1_159_2701">
<rect width="130" height="150" fill="white"/>
</clipPath>
</defs>
</svg>
